<?xml version="1.0" encoding="UTF-8" standalone="no"?>
<svg
   viewBox="0 0 32 32"
   version="1.1"
   id="svg78"
   sodipodi:docname="appicon.svg"
   inkscape:version="1.2.2 (732a01da63, 2022-12-09)"
   xmlns:inkscape="http://www.inkscape.org/namespaces/inkscape"
   xmlns:sodipodi="http://sodipodi.sourceforge.net/DTD/sodipodi-0.dtd"
   xmlns="http://www.w3.org/2000/svg"
   xmlns:svg="http://www.w3.org/2000/svg">
  <defs
     id="defs82" />
  <sodipodi:namedview
     id="namedview80"
     pagecolor="#505050"
     bordercolor="#eeeeee"
     borderopacity="1"
     inkscape:showpageshadow="0"
     inkscape:pageopacity="0"
     inkscape:pagecheckerboard="0"
     inkscape:deskcolor="#505050"
     showgrid="false"
     inkscape:zoom="32.09375"
     inkscape:cx="15.51704"
     inkscape:cy="15.984421"
     inkscape:window-width="2560"
     inkscape:window-height="1377"
     inkscape:window-x="-8"
     inkscape:window-y="-8"
     inkscape:window-maximized="1"
     inkscape:current-layer="svg78" />
  <title
     id="title75">arcgis-sdk-glyph-32</title>
  <path
     d="M14.491 30a.183.183 0 0 1-.181-.163l-.381-3.409-3.336-1.214-2.483 2.367a.183.183 0 0 1-.244.008l-2.312-1.94a.183.183 0 0 1-.034-.241l1.348-2.028a3.488 3.488 0 0 1 1.16-1.09l1.823-1.052A8.286 8.286 0 0 0 16 23.93a8.408 8.408 0 0 0 6.151-2.69l1.82 1.051a3.49 3.49 0 0 1 1.16 1.09l1.35 2.028a.183.183 0 0 1-.035.241l-2.312 1.94a.183.183 0 0 1-.244-.008l-2.483-2.367-3.336 1.214-.38 3.41a.183.183 0 0 1-.182.162zM14 4.864a2.961 2.961 0 0 0-.308-1.315L12.68 1.508a.183.183 0 0 0-.164-.102.18.18 0 0 0-.062.011L9.618 2.45a.183.183 0 0 0-.115.215l.808 3.334L7.59 8.28 4.45 6.905a.183.183 0 0 0-.232.076l-1.51 2.613a.183.183 0 0 0 .05.24l2.762 2.034-.616 3.496-3.292.967a.183.183 0 0 0-.128.207l.524 2.972a.182.182 0 0 0 .18.15h.011l2.431-.154a3.49 3.49 0 0 0 1.523-.46l1.82-1.05a8.145 8.145 0 0 1-.376-2.482A8.37 8.37 0 0 1 14 7.374zm4 0a2.961 2.961 0 0 1 .308-1.315l1.013-2.041a.183.183 0 0 1 .163-.102.18.18 0 0 1 .062.011l2.836 1.032a.183.183 0 0 1 .115.215l-.808 3.334 2.72 2.282 3.142-1.375a.183.183 0 0 1 .232.076l1.509 2.613a.183.183 0 0 1-.05.24l-2.762 2.034.616 3.496 3.292.967a.183.183 0 0 1 .128.207l-.524 2.972a.182.182 0 0 1-.18.15h-.011l-2.431-.154a3.49 3.49 0 0 1-1.523-.46l-1.82-1.05a8.145 8.145 0 0 0 .376-2.482A8.37 8.37 0 0 0 18 7.374zM16 19.3a3.8 3.8 0 1 1 3.8-3.8 3.8 3.8 0 0 1-3.8 3.8z"
     fill="#832FBC"
     id="icons"
     style="fill:#ffffff;fill-opacity:1" />
</svg>
